<svg width="128" height="128" viewBox="0 0 128 128" fill="none" xmlns="http://www.w3.org/2000/svg">
<g opacity="0.8">
<path opacity="0.4" d="M89 115H79V123H89V115Z" fill="url(#paint0_radial)"/>
<path opacity="0.4" d="M9 123H19V115H9V123Z" fill="url(#paint1_radial)"/>
<path opacity="0.4" d="M79 115H19V123H79V115Z" fill="url(#paint2_linear)"/>
</g>
<rect x="14" y="48" width="70" height="70" rx="4" fill="url(#paint3_linear)"/>
<rect x="13.75" y="47.75" width="70.5" height="70.5" rx="4.25" stroke="black" stroke-opacity="0.2" stroke-width="0.5"/>
<rect x="13.5" y="47.5" width="71" height="71" rx="4.5" stroke="#626262" stroke-opacity="0.4"/>
<rect x="14.5" y="48.5" width="69" height="69" rx="3.5" stroke="url(#paint4_linear)" stroke-linecap="round" stroke-linejoin="round"/>
<circle cx="48.2929" cy="83.7071" r="20" transform="rotate(-45 48.2929 83.7071)" stroke="#69696A" stroke-width="8"/>
<rect x="56.7781" y="97.8492" width="8" height="16" rx="2" transform="rotate(-45 56.7781 97.8492)" fill="#69696A"/>
<defs>
<radialGradient id="paint0_radial" cx="0" cy="0" r="1" gradientUnits="userSpaceOnUse" gradientTransform="translate(78.986 119) scale(10.0189 4)">
<stop stop-color="#181818"/>
<stop offset="1" stop-color="#181818" stop-opacity="0"/>
</radialGradient>
<radialGradient id="paint1_radial" cx="0" cy="0" r="1" gradientUnits="userSpaceOnUse" gradientTransform="translate(19.014 119) rotate(180) scale(10.0189 4)">
<stop stop-color="#181818"/>
<stop offset="1" stop-color="#181818" stop-opacity="0"/>
</radialGradient>
<linearGradient id="paint2_linear" x1="51.2673" y1="123.032" x2="51.2673" y2="114.999" gradientUnits="userSpaceOnUse">
<stop stop-color="#181818" stop-opacity="0"/>
<stop offset="0.5" stop-color="#181818"/>
<stop offset="1" stop-color="#181818" stop-opacity="0"/>
</linearGradient>
<linearGradient id="paint3_linear" x1="47" y1="47.7955" x2="47" y2="117" gradientUnits="userSpaceOnUse">
<stop stop-color="#FAFAFA"/>
<stop offset="1" stop-color="#D4D4D4"/>
</linearGradient>
<linearGradient id="paint4_linear" x1="49" y1="47.0541" x2="49" y2="118.946" gradientUnits="userSpaceOnUse">
<stop stop-color="white"/>
<stop offset="0.0631645" stop-color="white" stop-opacity="0.235294"/>
<stop offset="0.950563" stop-color="white" stop-opacity="0.156863"/>
<stop offset="1" stop-color="white" stop-opacity="0.392157"/>
</linearGradient>
</defs>
</svg>
