<svg width="16" height="16" viewBox="0 0 16 16" fill="none" xmlns="http://www.w3.org/2000/svg">
<path fill-rule="evenodd" clip-rule="evenodd" d="M7 0C6.44772 0 6 0.447715 6 1V9C6 9.55229 6.44772 10 7 10H15C15.5523 10 16 9.55228 16 9V5.22233V1C16 0.447715 15.5523 0 15 0H7ZM16 5.22233C16 5.12291 15.9625 5.03398 15.8842 4.96597C15.8028 4.89089 15.6854 4.86709 15.5648 4.86709C15.3097 4.86709 15.0833 4.85456 14.885 4.83C15.0867 4.26159 15.1892 3.73721 15.1892 3.25784C15.1892 2.8867 15.0955 2.57909 14.8936 2.34864C14.694 2.11539 14.4194 2 14.0841 2C13.8165 2 13.5699 2.06576 13.3473 2.19732L13.3461 2.198C13.1246 2.33205 12.9526 2.53368 12.8274 2.79294C12.7057 3.05071 12.6477 3.36195 12.6477 3.72242C12.6477 4.08723 12.7242 4.41601 12.8799 4.70448C13.0204 4.96047 13.2219 5.17369 13.482 5.34384C13.2669 5.77515 13.033 6.1368 12.7811 6.43028C12.5071 6.74495 12.2883 6.86476 12.124 6.86476C11.9744 6.86476 11.8664 6.81011 11.7862 6.69438C11.7009 6.55965 11.6361 6.35536 11.5995 6.07212C11.5674 5.78599 11.551 5.39928 11.551 4.9104C11.551 4.19667 11.616 3.48283 11.7462 2.76882C11.7579 2.71745 11.7625 2.65351 11.7625 2.58089C11.7625 2.44232 11.7215 2.31749 11.6174 2.23069C11.518 2.13924 11.3737 2.10619 11.2144 2.10619C11.0203 2.10619 10.8507 2.15084 10.719 2.25217C10.5852 2.35425 10.51 2.52838 10.4707 2.74081C10.3116 3.6215 10.118 4.37852 9.89024 5.01282C9.66134 5.64597 9.43265 6.11735 9.20658 6.43228C9.0944 6.5896 8.99448 6.70136 8.9074 6.7726C8.81861 6.84523 8.75673 6.86476 8.71847 6.86476C8.67231 6.86476 8.62266 6.84637 8.56743 6.78516C8.50973 6.72122 8.45242 6.61662 8.40067 6.46201C8.29811 6.15559 8.24416 5.71135 8.24416 5.12278C8.24416 4.49305 8.31402 3.7269 8.45452 2.82321L8.45507 2.81799C8.46439 2.73026 8.46978 2.66495 8.46978 2.62735C8.46978 2.46024 8.42761 2.30859 8.30289 2.21786C8.19734 2.1378 8.0572 2.10619 7.90058 2.10619C7.69349 2.10619 7.51511 2.15509 7.39335 2.27573C7.28101 2.38735 7.21822 2.57083 7.18456 2.7968C7.0617 3.5798 7 4.29993 7 4.95686C7 5.85809 7.11598 6.58743 7.35471 7.13776C7.47484 7.41237 7.62789 7.62812 7.81898 7.77573C8.01227 7.92505 8.23866 8 8.49285 8C8.93966 8 9.34728 7.78838 9.71493 7.39627C10.0028 7.09315 10.2628 6.67274 10.4973 6.13951C10.554 6.60344 10.6605 6.99666 10.8192 7.31574C10.9292 7.53464 11.0707 7.70677 11.2477 7.8241C11.4258 7.94223 11.6326 8 11.8631 8C12.3604 8 12.8464 7.76074 13.3199 7.31505C13.7773 6.88451 14.1683 6.35176 14.4941 5.71879C14.7757 5.7661 15.0863 5.78734 15.4254 5.7833L15.4276 5.78326C15.6074 5.77813 15.7614 5.72281 15.8614 5.59839C15.9537 5.48924 16 5.36241 16 5.22233ZM13.4944 3.03052C13.5871 2.86666 13.7255 2.75659 13.9149 2.75659C14.0601 2.75659 14.1675 2.83312 14.2356 2.94901C14.3036 3.06041 14.329 3.22053 14.329 3.41049C14.329 3.75186 14.2326 4.17503 14.0472 4.67615L13.9911 4.82766L13.8537 4.73114C13.5183 4.49565 13.3598 4.13572 13.3598 3.67596C13.3598 3.41142 13.4004 3.19226 13.4944 3.03052Z" fill="#666666"/>
<path fill-rule="evenodd" clip-rule="evenodd" d="M5 6H1C0.447715 6 0 6.44772 0 7V15C0 15.5523 0.447715 16 1 16H9C9.55229 16 10 15.5523 10 15V11H8.5C8.5 11.7384 8.26779 12.4768 7.80336 13.0963L8.68706 13.98C8.79864 14.0915 8.77037 14.3007 8.62393 14.4472L8.0936 14.9775C7.94715 15.1239 7.73798 15.1522 7.6264 15.0406L6.66528 14.0795C5.33873 14.7975 3.64625 14.596 2.52513 13.4749C1.15829 12.108 1.15829 9.89196 2.52513 8.52513C3.20854 7.84171 4.10427 7.5 5 7.5V6ZM5 9C4.48816 9 3.97631 9.19526 3.58579 9.58579C2.80474 10.3668 2.80474 11.6332 3.58579 12.4142C4.36684 13.1953 5.63316 13.1953 6.41421 12.4142C6.80474 12.0237 7 11.5118 7 11H6C5.44771 11 5 10.5523 5 10V9Z" fill="#666666"/>
<path d="M13.4944 3.03052C13.5871 2.86666 13.7255 2.75659 13.9149 2.75659C14.0601 2.75659 14.1675 2.83312 14.2356 2.94901C14.3036 3.06041 14.329 3.22053 14.329 3.41049C14.329 3.75186 14.2326 4.17503 14.0472 4.67615L13.9911 4.82766L13.8537 4.73114C13.5183 4.49565 13.3598 4.13572 13.3598 3.67596C13.3598 3.41142 13.4004 3.19226 13.4944 3.03052Z" fill="#666666"/>
<path fill-rule="evenodd" clip-rule="evenodd" d="M7 0C6.44772 0 6 0.447716 6 1V9C6 9.55229 6.44772 10 7 10H15C15.5523 10 16 9.55228 16 9V5.22233V1C16 0.447715 15.5523 0 15 0H7ZM16 5.22233C16 5.12291 15.9625 5.03398 15.8842 4.96597C15.8028 4.89089 15.6854 4.86709 15.5648 4.86709C15.3097 4.86709 15.0833 4.85456 14.885 4.83C15.0867 4.26159 15.1892 3.73721 15.1892 3.25784C15.1892 2.8867 15.0955 2.57909 14.8936 2.34864C14.694 2.11539 14.4194 2 14.0841 2C13.8165 2 13.5699 2.06576 13.3473 2.19732L13.3461 2.198C13.1246 2.33205 12.9526 2.53368 12.8274 2.79294C12.7057 3.05071 12.6477 3.36195 12.6477 3.72242C12.6477 4.08723 12.7242 4.41601 12.8799 4.70448C13.0204 4.96047 13.2219 5.17369 13.482 5.34384C13.2669 5.77515 13.033 6.1368 12.7811 6.43028C12.5071 6.74495 12.2883 6.86476 12.124 6.86476C11.9744 6.86476 11.8664 6.81011 11.7862 6.69438C11.7009 6.55965 11.6361 6.35536 11.5995 6.07212C11.5674 5.78599 11.551 5.39928 11.551 4.9104C11.551 4.19667 11.616 3.48283 11.7462 2.76882C11.7579 2.71745 11.7625 2.65351 11.7625 2.58089C11.7625 2.44232 11.7215 2.31749 11.6174 2.23069C11.518 2.13924 11.3737 2.10619 11.2144 2.10619C11.0203 2.10619 10.8507 2.15084 10.719 2.25217C10.5852 2.35425 10.51 2.52838 10.4707 2.74081C10.3116 3.6215 10.118 4.37852 9.89024 5.01282C9.66134 5.64597 9.43265 6.11735 9.20658 6.43228C9.0944 6.5896 8.99448 6.70136 8.9074 6.7726C8.81861 6.84523 8.75673 6.86476 8.71847 6.86476C8.67231 6.86476 8.62266 6.84637 8.56743 6.78516C8.50973 6.72122 8.45242 6.61662 8.40067 6.46201C8.29811 6.15559 8.24416 5.71135 8.24416 5.12278C8.24416 4.49305 8.31402 3.7269 8.45452 2.82321L8.45507 2.81799C8.46439 2.73026 8.46978 2.66495 8.46978 2.62735C8.46978 2.46024 8.42761 2.30859 8.30289 2.21786C8.19734 2.1378 8.0572 2.10619 7.90058 2.10619C7.69349 2.10619 7.51511 2.15509 7.39335 2.27573C7.28101 2.38735 7.21822 2.57083 7.18456 2.7968C7.0617 3.5798 7 4.29993 7 4.95686C7 5.85809 7.11598 6.58743 7.35471 7.13776C7.47484 7.41237 7.62789 7.62812 7.81898 7.77573C8.01227 7.92505 8.23866 8 8.49285 8C8.93966 8 9.34728 7.78838 9.71493 7.39627C10.0028 7.09315 10.2628 6.67274 10.4973 6.13951C10.554 6.60344 10.6605 6.99666 10.8192 7.31574C10.9292 7.53464 11.0707 7.70677 11.2477 7.8241C11.4258 7.94223 11.6326 8 11.8631 8C12.3604 8 12.8464 7.76074 13.3199 7.31505C13.7773 6.88451 14.1683 6.35176 14.4941 5.71879C14.7757 5.7661 15.0863 5.78734 15.4254 5.7833L15.4276 5.78326C15.6074 5.77813 15.7614 5.72281 15.8614 5.59839C15.9537 5.48924 16 5.36241 16 5.22233Z" fill="#666666"/>
<path d="M5 6H1C0.447715 6 0 6.44772 0 7V15C0 15.5523 0.447716 16 1 16H9C9.55229 16 10 15.5523 10 15V11H8.5C8.5 11.7384 8.26779 12.4768 7.80336 13.0963L8.68706 13.98C8.79864 14.0915 8.77037 14.3007 8.62393 14.4472L8.0936 14.9775C7.94715 15.1239 7.73798 15.1522 7.6264 15.0406L6.66528 14.0795C5.33873 14.7975 3.64625 14.596 2.52513 13.4749C1.15829 12.108 1.15829 9.89196 2.52513 8.52513C3.20854 7.84171 4.10427 7.5 5 7.5V6Z" fill="#666666"/>
<path d="M5 9C4.48816 9 3.97631 9.19526 3.58579 9.58579C2.80474 10.3668 2.80474 11.6332 3.58579 12.4142C4.36684 13.1953 5.63316 13.1953 6.41421 12.4142C6.80474 12.0237 7 11.5118 7 11H6C5.44771 11 5 10.5523 5 10V9Z" fill="#666666"/>
</svg>
