<svg width="16" height="16" viewBox="0 0 16 16" fill="none" xmlns="http://www.w3.org/2000/svg">
<path fill-rule="evenodd" clip-rule="evenodd" d="M6.8 0C6.35817 0 6 0.358173 6 0.8V9.2C6 9.64183 6.35817 10 6.8 10H15.2C15.6418 10 16 9.64183 16 9.2V0.8C16 0.358172 15.6418 0 15.2 0H6.8ZM13.142 2.18849C13.3399 2.06282 13.5591 2 13.797 2C14.095 2 14.3391 2.11023 14.5165 2.33304C14.696 2.55317 14.7793 2.84702 14.7793 3.20155C14.7793 3.65946 14.6882 4.16038 14.5089 4.70334C14.6852 4.72681 14.8864 4.73878 15.1131 4.73878C15.2204 4.73878 15.3247 4.76152 15.397 4.83323C15.4666 4.8982 15.5 4.98315 15.5 5.07812C15.5 5.21193 15.4588 5.33308 15.3768 5.43735C15.2879 5.55621 15.151 5.60905 14.9912 5.61395L14.9892 5.61399C14.6878 5.61785 14.4117 5.59755 14.1614 5.55237C13.8718 6.15701 13.5242 6.66592 13.1177 7.07719C12.6968 7.50293 12.2648 7.73148 11.8228 7.73148C11.6179 7.73148 11.434 7.6763 11.2757 7.56346C11.1184 7.45137 10.9926 7.28695 10.8948 7.07785C10.7538 6.77304 10.6591 6.39743 10.6087 5.95426C10.4003 6.46362 10.1691 6.86522 9.91327 7.15477C9.58647 7.52933 9.22414 7.73148 8.82698 7.73148C8.60103 7.73148 8.39979 7.65989 8.22798 7.51725C8.05813 7.37625 7.92208 7.17015 7.8153 6.90783C7.60309 6.38213 7.5 5.68543 7.5 4.82453C7.5 4.197 7.55484 3.5091 7.66406 2.76114C7.69397 2.54528 7.74979 2.37002 7.84965 2.26339C7.95787 2.14815 8.11643 2.10144 8.30052 2.10144C8.43974 2.10144 8.5643 2.13163 8.65812 2.20811C8.76899 2.29478 8.80647 2.43964 8.80647 2.59927C8.80647 2.63519 8.80168 2.69758 8.7934 2.78138L8.79291 2.78637C8.66802 3.64961 8.60592 4.38148 8.60592 4.98303C8.60592 5.54525 8.65387 5.96961 8.74504 6.26232C8.79104 6.41002 8.84198 6.50993 8.89327 6.57102C8.94236 6.62948 8.9865 6.64705 9.02753 6.64705C9.06153 6.64705 9.11654 6.62839 9.19546 6.55901C9.27287 6.49096 9.36169 6.3842 9.46141 6.23393C9.66235 5.93309 9.86564 5.48281 10.0691 4.87798C10.2715 4.27208 10.4437 3.54893 10.5851 2.70765C10.62 2.50473 10.6869 2.3384 10.8058 2.24089C10.9228 2.14409 11.0736 2.10144 11.2462 2.10144C11.3878 2.10144 11.516 2.13301 11.6044 2.22037C11.6969 2.30328 11.7333 2.42252 11.7333 2.5549C11.7333 2.62427 11.7292 2.68534 11.7188 2.73442C11.6031 3.41647 11.5453 4.09836 11.5453 4.78015C11.5453 5.24715 11.5599 5.61656 11.5885 5.88988C11.621 6.16045 11.6786 6.35559 11.7544 6.4843C11.8257 6.59484 11.9217 6.64705 12.0547 6.64705C12.2007 6.64705 12.3952 6.5326 12.6387 6.23201C12.8627 5.95166 13.0706 5.6062 13.2618 5.1942C13.0306 5.03166 12.8515 4.82798 12.7266 4.58344C12.5882 4.30788 12.5201 3.99382 12.5201 3.64534C12.5201 3.301 12.5718 3.00368 12.6799 2.75745C12.7912 2.5098 12.9441 2.31719 13.141 2.18914L13.142 2.18849ZM13.2728 2.9844C13.3552 2.82788 13.4782 2.72273 13.6466 2.72273C13.7756 2.72273 13.8711 2.79584 13.9316 2.90654C13.9921 3.01295 14.0146 3.1659 14.0146 3.34737C14.0146 3.67346 13.9289 4.07769 13.7642 4.55639L13.7143 4.70111L13.5922 4.60891C13.2941 4.38396 13.1531 4.04014 13.1531 3.60096C13.1531 3.34826 13.1892 3.1389 13.2728 2.9844Z" fill="#666666"/>
<path fill-rule="evenodd" clip-rule="evenodd" d="M5 6H0.8C0.358172 6 0 6.35817 0 6.8V15.2C0 15.6418 0.358173 16 0.8 16H9.2C9.64183 16 10 15.6418 10 15.2V11H8.5C8.5 11.7384 8.26779 12.4768 7.80336 13.0963L8.68706 13.98C8.79864 14.0915 8.77037 14.3007 8.62393 14.4472L8.0936 14.9775C7.94715 15.1239 7.73798 15.1522 7.6264 15.0406L6.66528 14.0795C5.33873 14.7975 3.64625 14.596 2.52513 13.4749C1.15829 12.108 1.15829 9.89196 2.52513 8.52513C3.20854 7.84171 4.10427 7.5 5 7.5V6ZM5 9C4.48816 9 3.97631 9.19526 3.58579 9.58579C2.80474 10.3668 2.80474 11.6332 3.58579 12.4142C4.36684 13.1953 5.63316 13.1953 6.41421 12.4142C6.80474 12.0237 7 11.5118 7 11H5.8C5.35817 11 5 10.6418 5 10.2V9Z" fill="#666666"/>
<path d="M13.2728 2.9844C13.3552 2.82788 13.4782 2.72273 13.6466 2.72273C13.7756 2.72273 13.8711 2.79584 13.9316 2.90654C13.9921 3.01295 14.0146 3.1659 14.0146 3.34737C14.0146 3.67346 13.9289 4.07769 13.7642 4.55639L13.7143 4.70111L13.5922 4.60891C13.2941 4.38396 13.1531 4.04014 13.1531 3.60096C13.1531 3.34826 13.1892 3.1389 13.2728 2.9844Z" fill="#666666"/>
<path fill-rule="evenodd" clip-rule="evenodd" d="M6.8 0C6.35817 0 6 0.358173 6 0.8V9.2C6 9.64183 6.35817 10 6.8 10H15.2C15.6418 10 16 9.64183 16 9.2V0.8C16 0.358172 15.6418 0 15.2 0H6.8ZM13.142 2.18849C13.3399 2.06282 13.5591 2 13.797 2C14.095 2 14.3391 2.11023 14.5165 2.33304C14.696 2.55317 14.7793 2.84702 14.7793 3.20155C14.7793 3.65946 14.6882 4.16038 14.5089 4.70334C14.6852 4.72681 14.8864 4.73878 15.1131 4.73878C15.2204 4.73878 15.3247 4.76152 15.397 4.83323C15.4666 4.8982 15.5 4.98315 15.5 5.07812C15.5 5.21193 15.4588 5.33308 15.3768 5.43735C15.2879 5.55621 15.151 5.60905 14.9912 5.61395L14.9892 5.61399C14.6878 5.61785 14.4117 5.59755 14.1614 5.55237C13.8718 6.15701 13.5242 6.66592 13.1177 7.07719C12.6968 7.50293 12.2648 7.73148 11.8228 7.73148C11.6179 7.73148 11.434 7.6763 11.2757 7.56346C11.1184 7.45137 10.9926 7.28695 10.8948 7.07785C10.7538 6.77304 10.6591 6.39743 10.6087 5.95426C10.4003 6.46362 10.1691 6.86522 9.91327 7.15477C9.58647 7.52933 9.22414 7.73148 8.82698 7.73148C8.60103 7.73148 8.39979 7.65989 8.22798 7.51725C8.05813 7.37625 7.92208 7.17015 7.8153 6.90783C7.60309 6.38213 7.5 5.68543 7.5 4.82453C7.5 4.197 7.55484 3.5091 7.66406 2.76114C7.69397 2.54528 7.74979 2.37002 7.84965 2.26339C7.95787 2.14815 8.11643 2.10144 8.30052 2.10144C8.43974 2.10144 8.5643 2.13163 8.65812 2.20811C8.76899 2.29478 8.80647 2.43964 8.80647 2.59927C8.80647 2.63519 8.80168 2.69758 8.7934 2.78138L8.79291 2.78637C8.66802 3.64961 8.60592 4.38148 8.60592 4.98303C8.60592 5.54525 8.65387 5.96961 8.74504 6.26232C8.79104 6.41002 8.84198 6.50993 8.89327 6.57102C8.94236 6.62948 8.9865 6.64705 9.02753 6.64705C9.06153 6.64705 9.11654 6.62839 9.19546 6.55901C9.27287 6.49096 9.36169 6.3842 9.46141 6.23393C9.66235 5.93309 9.86564 5.48281 10.0691 4.87798C10.2715 4.27208 10.4437 3.54893 10.5851 2.70765C10.62 2.50473 10.6869 2.3384 10.8058 2.24089C10.9228 2.14409 11.0736 2.10144 11.2462 2.10144C11.3878 2.10144 11.516 2.13301 11.6044 2.22037C11.6969 2.30328 11.7333 2.42252 11.7333 2.5549C11.7333 2.62427 11.7292 2.68534 11.7188 2.73442C11.6031 3.41647 11.5453 4.09836 11.5453 4.78015C11.5453 5.24715 11.5599 5.61656 11.5885 5.88988C11.621 6.16045 11.6786 6.35559 11.7544 6.4843C11.8257 6.59484 11.9217 6.64705 12.0547 6.64705C12.2007 6.64705 12.3952 6.5326 12.6387 6.23201C12.8627 5.95166 13.0706 5.6062 13.2618 5.1942C13.0306 5.03166 12.8515 4.82798 12.7266 4.58344C12.5882 4.30788 12.5201 3.99382 12.5201 3.64534C12.5201 3.301 12.5718 3.00368 12.6799 2.75745C12.7912 2.5098 12.9441 2.31719 13.141 2.18914L13.142 2.18849Z" fill="#666666"/>
<path d="M5 6H0.8C0.358172 6 0 6.35817 0 6.8V15.2C0 15.6418 0.358173 16 0.8 16H9.2C9.64183 16 10 15.6418 10 15.2V11H8.5C8.5 11.7384 8.26779 12.4768 7.80336 13.0963L8.68706 13.98C8.79864 14.0915 8.77037 14.3007 8.62393 14.4472L8.0936 14.9775C7.94715 15.1239 7.73798 15.1522 7.6264 15.0406L6.66528 14.0795C5.33873 14.7975 3.64625 14.596 2.52513 13.4749C1.15829 12.108 1.15829 9.89196 2.52513 8.52513C3.20854 7.84171 4.10427 7.5 5 7.5V6Z" fill="#666666"/>
<path d="M5 9C4.48816 9 3.97631 9.19526 3.58579 9.58579C2.80474 10.3668 2.80474 11.6332 3.58579 12.4142C4.36684 13.1953 5.63316 13.1953 6.41421 12.4142C6.80474 12.0237 7 11.5118 7 11H5.8C5.35817 11 5 10.6418 5 10.2V9Z" fill="#666666"/>
</svg>
